<?xml version="1.0" encoding="utf-8"?><svg xmlns="http://www.w3.org/2000/svg" xmlns:xlink="http://www.w3.org/1999/xlink" width="144" height="144"><g><rect x="0" y="0" width="144" height="144" style="fill: #e6bb85" /><g style="stroke: #4a2e06; stroke-linecap: round; stroke-width: 0.5"><line x1="16" y1="8" x2="16" y2="128" /><line x1="32" y1="8" x2="32" y2="128" /><line x1="48" y1="8" x2="48" y2="128" /><line x1="64" y1="8" x2="64" y2="128" /><line x1="80" y1="8" x2="80" y2="128" /><line x1="96" y1="8" x2="96" y2="128" /><line x1="112" y1="8" x2="112" y2="128" /><line x1="128" y1="8" x2="128" y2="128" style="stroke-width: 1" /><line x1="8" y1="16" x2="128" y2="16" /><line x1="8" y1="32" x2="128" y2="32" /><line x1="8" y1="48" x2="128" y2="48" /><line x1="8" y1="64" x2="128" y2="64" /><line x1="8" y1="80" x2="128" y2="80" /><line x1="8" y1="96" x2="128" y2="96" /><line x1="8" y1="112" x2="128" y2="112" /><line x1="8" y1="128" x2="128" y2="128" style="stroke-width: 1" /></g><g style="fill: #000"><circle cx="80" cy="80" r="1.6" /></g><g><circle cx="32" cy="48" r="7.6" style="fill: #000" /><circle cx="32" cy="64" r="7.6" style="fill: #000" /><circle cx="32" cy="80" r="7.6" style="fill: #000" /><circle cx="32" cy="96" r="7.6" style="fill: #000" /><circle cx="48" cy="32" r="7.6" style="fill: #000" /><circle cx="48" cy="64" r="7.6" style="fill: #FFF" /><circle cx="48" cy="64" r="7.6" style="fill: none; stroke: #444; stroke-width: 0.5" /><circle cx="48" cy="80" r="7.6" style="fill: #FFF" /><circle cx="48" cy="80" r="7.6" style="fill: none; stroke: #444; stroke-width: 0.5" /><circle cx="48" cy="96" r="7.6" style="fill: #FFF" /><circle cx="48" cy="96" r="7.6" style="fill: none; stroke: #444; stroke-width: 0.5" /><circle cx="48" cy="112" r="7.6" style="fill: #000" /><circle cx="64" cy="32" r="7.6" style="fill: #000" /><circle cx="64" cy="64" r="7.6" style="fill: #FFF" /><circle cx="64" cy="64" r="7.6" style="fill: none; stroke: #444; stroke-width: 0.5" /><circle cx="64" cy="96" r="7.6" style="fill: #FFF" /><circle cx="64" cy="96" r="7.6" style="fill: none; stroke: #444; stroke-width: 0.5" /><circle cx="64" cy="112" r="7.6" style="fill: #000" /><circle cx="80" cy="32" r="7.6" style="fill: #000" /><circle cx="80" cy="64" r="7.6" style="fill: #FFF" /><circle cx="80" cy="64" r="7.6" style="fill: none; stroke: #444; stroke-width: 0.5" /><circle cx="80" cy="96" r="7.6" style="fill: #FFF" /><circle cx="80" cy="96" r="7.6" style="fill: none; stroke: #444; stroke-width: 0.5" /><circle cx="80" cy="112" r="7.6" style="fill: #FFF" /><circle cx="80" cy="112" r="7.6" style="fill: none; stroke: #444; stroke-width: 0.5" /><circle cx="80" cy="128" r="7.6" style="fill: #000" /><circle cx="96" cy="32" r="7.6" style="fill: #000" /><circle cx="96" cy="64" r="7.6" style="fill: #FFF" /><circle cx="96" cy="64" r="7.6" style="fill: none; stroke: #444; stroke-width: 0.5" /><circle cx="96" cy="80" r="7.6" style="fill: #FFF" /><circle cx="96" cy="80" r="7.6" style="fill: none; stroke: #444; stroke-width: 0.5" /><circle cx="96" cy="96" r="7.6" style="fill: #000" /><circle cx="96" cy="112" r="7.6" style="fill: #000" /><circle cx="112" cy="48" r="7.6" style="fill: #000" /><circle cx="112" cy="64" r="7.6" style="fill: #000" /><circle cx="112" cy="80" r="7.6" style="fill: #FFF" /><circle cx="112" cy="80" r="7.6" style="fill: none; stroke: #444; stroke-width: 0.5" /><circle cx="128" cy="64" r="7.6" style="fill: #FFF" /><circle cx="128" cy="64" r="7.6" style="fill: none; stroke: #444; stroke-width: 0.5" /><circle cx="128" cy="80" r="7.6" style="fill: #000" /></g></g></svg>